<?xml version="1.0" encoding="UTF-8" standalone="no"?><!DOCTYPE svg PUBLIC "-//W3C//DTD SVG 1.1//EN" "http://www.w3.org/Graphics/SVG/1.1/DTD/svg11.dtd"><svg width="100%" height="100%" viewBox="0 0 16 16" version="1.1" xmlns="http://www.w3.org/2000/svg" xmlns:xlink="http://www.w3.org/1999/xlink" xml:space="preserve" style="fill-rule:evenodd;clip-rule:evenodd;stroke-linejoin:round;stroke-miterlimit:1.41421;"><path d="M7.023,0.176c-0.587,0.034 -1.494,0.134 -1.952,0.218c-0.851,0.153 -1.391,0.692 -1.512,1.509c-0.053,0.352 -0.003,0.586 0.287,1.325c0.711,1.808 1.169,3.488 1.446,5.287c0.1,0.649 0.328,2.731 0.328,3.012c0,0.371 0.159,0.723 0.402,0.891l0.125,0.088l0.003,0.826c0,0.602 0.012,0.885 0.046,1.044c0.134,0.636 0.636,1.191 1.263,1.391c0.312,0.103 0.814,0.096 1.116,-0.013c0.128,-0.043 0.309,-0.128 0.402,-0.184c0.247,-0.149 0.543,-0.474 0.677,-0.748c0.178,-0.362 0.206,-0.549 0.206,-1.49l0.003,-0.826l0.124,-0.088c0.243,-0.168 0.402,-0.52 0.402,-0.894c0,-0.278 0.225,-2.345 0.328,-3.009c0.265,-1.724 0.729,-3.451 1.356,-5.05c0.368,-0.945 0.383,-0.998 0.387,-1.325c0,-0.197 -0.019,-0.359 -0.057,-0.484c-0.19,-0.636 -0.704,-1.112 -1.343,-1.244c-0.265,-0.056 -1.113,-0.162 -1.621,-0.205c-0.543,-0.044 -1.855,-0.063 -2.416,-0.031Zm2.556,0.561c1.051,0.106 1.506,0.187 1.724,0.302c0.2,0.109 0.443,0.374 0.546,0.592c0.075,0.159 0.084,0.219 0.081,0.493c0,0.302 -0.006,0.321 -0.166,0.717c-0.093,0.221 -0.243,0.608 -0.333,0.857l-0.162,0.452l-3.264,0l-3.265,0l-0.165,-0.452c-0.09,-0.249 -0.24,-0.636 -0.33,-0.857c-0.162,-0.396 -0.165,-0.411 -0.169,-0.717c0,-0.274 0.01,-0.334 0.085,-0.493c0.103,-0.218 0.346,-0.483 0.545,-0.592c0.225,-0.122 0.839,-0.224 1.771,-0.302c0.224,-0.016 0.468,-0.038 0.546,-0.044c0.274,-0.022 2.235,0.009 2.556,0.044Zm1.497,3.953c0,0.015 -0.057,0.215 -0.125,0.446c-0.303,1 -0.608,2.369 -0.761,3.41c-0.043,0.29 -0.121,0.936 -0.174,1.434c-0.05,0.496 -0.103,0.951 -0.113,1.004l-0.015,0.103l-1.883,0l-1.886,0l-0.013,-0.072c-0.009,-0.037 -0.053,-0.433 -0.097,-0.879c-0.199,-1.976 -0.495,-3.526 -0.969,-5.053c-0.059,-0.194 -0.106,-0.365 -0.106,-0.384c0,-0.025 0.842,-0.034 3.071,-0.034c1.689,0 3.071,0.012 3.071,0.025Zm-1.216,6.977c0,0.118 -0.113,0.299 -0.24,0.387l-0.116,0.078l-1.499,0l-1.5,0l-0.115,-0.078c-0.128,-0.088 -0.24,-0.269 -0.24,-0.387l0,-0.081l3.71,0l0,0.081l0,0Zm-0.53,1.259l0,0.281l-1.325,0l-1.325,0l0,-0.561l2.65,0l0,0.28Zm0,1.06l0,0.281l-1.325,0l-1.325,0l0,-0.561l2.65,0l0,0.28Zm-0.331,0.892c-0.084,0.128 -0.383,0.321 -0.598,0.387c-0.406,0.124 -0.842,0.05 -1.185,-0.203c-0.106,-0.075 -0.206,-0.165 -0.224,-0.203c-0.035,-0.062 -0.032,-0.062 1.013,-0.062l1.044,0l-0.05,0.081Z" style="fill-rule:nonzero;"/></svg>